<svg width="21" height="21" viewBox="0 0 21 21" fill="none" xmlns="http://www.w3.org/2000/svg">
<path d="M13.3634 17.8564V16.1898C13.3634 15.3057 13.0123 14.4579 12.3871 13.8328C11.762 13.2076 10.9142 12.8564 10.0301 12.8564H5.03011C4.14606 12.8564 3.29821 13.2076 2.67309 13.8328C2.04797 14.4579 1.69678 15.3057 1.69678 16.1898V17.8564" stroke="#2563EB" stroke-width="1.66667" stroke-linecap="round" stroke-linejoin="round"/>
<path d="M7.53011 9.52311C9.37106 9.52311 10.8634 8.03073 10.8634 6.18978C10.8634 4.34883 9.37106 2.85645 7.53011 2.85645C5.68916 2.85645 4.19678 4.34883 4.19678 6.18978C4.19678 8.03073 5.68916 9.52311 7.53011 9.52311Z" stroke="#2563EB" stroke-width="1.66667" stroke-linecap="round" stroke-linejoin="round"/>
<path d="M18.3633 17.8565V16.1898C18.3627 15.4513 18.1169 14.7338 17.6644 14.1501C17.2119 13.5664 16.5784 13.1495 15.8633 12.9648" stroke="#2563EB" stroke-width="1.66667" stroke-linecap="round" stroke-linejoin="round"/>
<path d="M13.3633 2.96484C14.0803 3.14843 14.7158 3.56543 15.1696 4.1501C15.6235 4.73478 15.8698 5.45387 15.8698 6.19401C15.8698 6.93415 15.6235 7.65324 15.1696 8.23792C14.7158 8.82259 14.0803 9.23959 13.3633 9.42318" stroke="#2563EB" stroke-width="1.66667" stroke-linecap="round" stroke-linejoin="round"/>
</svg>
